<svg id="visual" viewBox="0 0 1600 600" width="1600" height="600" xmlns="http://www.w3.org/2000/svg" xmlns:xlink="http://www.w3.org/1999/xlink" version="1.1"><rect x="0" y="0" width="1600" height="600" fill="#001220"></rect><defs><linearGradient id="grad1_0" x1="62.5%" y1="100%" x2="100%" y2="0%"><stop offset="-3.333333333333332%" stop-color="#001220" stop-opacity="1"></stop><stop offset="103.33333333333334%" stop-color="#001220" stop-opacity="1"></stop></linearGradient></defs><defs><linearGradient id="grad2_0" x1="0%" y1="100%" x2="37.5%" y2="0%"><stop offset="-3.333333333333332%" stop-color="#001220" stop-opacity="1"></stop><stop offset="103.33333333333334%" stop-color="#001220" stop-opacity="1"></stop></linearGradient></defs><g transform="translate(1600, 600)"><path d="M-270 0C-261.1 -32.6 -252.2 -65.3 -241.1 -99.9C-230 -134.5 -216.7 -171 -190.9 -190.9C-165.1 -210.8 -126.9 -214.1 -93 -224.5C-59.1 -234.9 -29.5 -252.5 0 -270L0 0Z" fill="#FBAE3C"></path></g><g transform="translate(0, 0)"><path d="M270 0C259.4 35.2 248.8 70.4 229.1 94.9C209.5 119.4 180.7 133.1 160.5 160.5C140.3 187.9 128.7 228.9 103.3 249.4C78 270 39 270 0 270L0 0Z" fill="#FBAE3C"></path></g></svg>