<svg xmlns="http://www.w3.org/2000/svg" xmlns:xlink="http://www.w3.org/1999/xlink" viewBox="0 0 512 512" width="512" height="512" preserveAspectRatio="xMidYMid meet" style="width: 100%; height: 100%; transform: translate3d(0px, 0px, 0px); content-visibility: visible;"><defs><clipPath id="__lottie_element_673"><rect width="512" height="512" x="0" y="0"></rect></clipPath></defs><g clip-path="url(#__lottie_element_673)"><g transform="matrix(1,0,0,1,45.7449951171875,50.92999267578125)" opacity="1" style="display: block;"><g opacity="1" transform="matrix(1,0,0,1,223.2760009765625,205.91900634765625)"><path fill="rgb(0,0,0)" fill-opacity="1" d=" M185.9969940185547,-62.604000091552734 C157.2259979248047,-148.0540008544922 77.14299774169922,-205.6219940185547 -13.020999908447266,-205.66900634765625 C-129.0050048828125,-205.66400146484375 -223.0260009765625,-111.63600158691406 -223.02099609375,4.348999977111816 C-223.01699829101562,94.73600006103516 -165.17999267578125,174.9810028076172 -79.43299865722656,203.56900024414062 C-68.93299865722656,205.40699768066406 -64.99500274658203,199.10699462890625 -64.99500274658203,193.593994140625 C-64.99500274658203,188.63699340820312 -65.25499725341797,172.26800537109375 -65.25800323486328,154.8000030517578 C-116.52300262451172,163.66900634765625 -127.5210189819336,160.15084838867188 -145.56390380859375,142.806884765625 C-150.22390747070312,131.31788635253906 -157.61190795898438,121.13688659667969 -167.08889770507812,113.14389038085938 C-174.43890380859375,109.20588684082031 -184.93890380859375,99.49388885498047 -167.35189819335938,99.23188781738281 C-153.722900390625,100.71089172363281 -141.67190551757812,108.74388885498047 -135.06390380859375,120.75588989257812 C-117.52095031738281,139.15090942382812 -85.6969985961914,136.7480010986328 -64.35099792480469,126.10600280761719 C-64.35099792480469,126.10600280761719 -64.31999969482422,125.14299774169922 -64.31999969482422,125.14299774169922 C-64.28299713134766,125.12300109863281 -64.24600219726562,125.10199737548828 -64.20899963378906,125.08100128173828 C-63.29899978637695,114.40499877929688 -58.54100036621094,104.4229965209961 -50.82099914550781,96.99400329589844 C-97.5459976196289,91.74400329589844 -146.37100219726562,73.63099670410156 -146.37100219726562,-6.692999839782715 C-146.66600036621094,-27.56399917602539 -138.96400451660156,-47.75699996948242 -124.84600067138672,-63.13100051879883 C-132.02099609375,-74.34906005859375 -144.01388549804688,-98.1770248413086 -136.24588012695312,-115.7810287475586 C-136.24588012695312,-115.7810287475586 -107.02098083496094,-133.8489227294922 -64.99600219726562,-97.25599670410156 C-30.634000778198242,-106.70600128173828 5.642000198364258,-106.70600128173828 40.00400161743164,-97.25599670410156 C82.4789810180664,-126.84898376464844 109.75389862060547,-117.28101348876953 109.75389862060547,-117.28101348876953 C114.97891998291016,-91.34908294677734 109.47897338867188,-73.34906768798828 99.85399627685547,-63.13100051879883 C114.01599884033203,-47.78300094604492 121.7239990234375,-27.572999954223633 121.37899780273438,-6.692999839782715 C121.37899780273438,73.89399719238281 72.29100036621094,91.74400329589844 25.566999435424805,96.99400329589844 C35.70800018310547,107.27300262451172 40.88100051879883,121.45099639892578 39.742000579833984,135.843994140625 C39.742000579833984,163.9320068359375 39.479000091552734,186.5070037841797 39.479000091552734,193.593994140625 C39.479000091552734,199.10699462890625 43.41699981689453,205.66900634765625 53.91699981689453,203.56900024414062 C163.89100646972656,166.54100036621094 223.0260009765625,47.37099838256836 185.9969940185547,-62.604000091552734z"></path></g></g></g></svg>