<svg id="visual" viewBox="0 0 1920 1080" width="100%" height="600" xmlns="http://www.w3.org/2000/svg" xmlns:xlink="http://www.w3.org/1999/xlink" version="1.1"> <rect x="0" y="0" width="1920" height="1080" fill="#001220"></rect><path d="M0 434L15 428.7C30 423.3 60 412.7 90 405.3C120 398 150 394 180 397C210 400 240 410 270 417.7C300 425.3 330 430.7 360 432.7C390 434.7 420 433.3 450 429C480 424.7 510 417.3 540 415.5C570 413.7 600 417.3 630 419.2C660 421 690 421 720 425C750 429 780 437 810 434.3C840 431.7 870 418.3 885 411.7L900 405L900 601L885 601C870 601 840 601 810 601C780 601 750 601 720 601C690 601 660 601 630 601C600 601 570 601 540 601C510 601 480 601 450 601C420 601 390 601 360 601C330 601 300 601 270 601C240 601 210 601 180 601C150 601 120 601 90 601C60 601 30 601 15 601L0 601Z" fill="#fa7268"></path><path d="M0 444L15 450.5C30 457 60 470 90 474C120 478 150 473 180 470.3C210 467.7 240 467.3 270 470.5C300 473.7 330 480.3 360 484.3C390 488.3 420 489.7 450 485.7C480 481.7 510 472.3 540 466.2C570 460 600 457 630 456.5C660 456 690 458 720 460.5C750 463 780 466 810 463.8C840 461.7 870 454.3 885 450.7L900 447L900 601L885 601C870 601 840 601 810 601C780 601 750 601 720 601C690 601 660 601 630 601C600 601 570 601 540 601C510 601 480 601 450 601C420 601 390 601 360 601C330 601 300 601 270 601C240 601 210 601 180 601C150 601 120 601 90 601C60 601 30 601 15 601L0 601Z" fill="#e34c67"></path><path d="M0 521L15 519.2C30 517.3 60 513.7 90 510.7C120 507.7 150 505.3 180 511.3C210 517.3 240 531.7 270 534.7C300 537.7 330 529.3 360 525.3C390 521.3 420 521.7 450 525.5C480 529.3 510 536.7 540 536.8C570 537 600 530 630 528C660 526 690 529 720 526.3C750 523.7 780 515.3 810 516C840 516.7 870 526.3 885 531.2L900 536L900 601L885 601C870 601 840 601 810 601C780 601 750 601 720 601C690 601 660 601 630 601C600 601 570 601 540 601C510 601 480 601 450 601C420 601 390 601 360 601C330 601 300 601 270 601C240 601 210 601 180 601C150 601 120 601 90 601C60 601 30 601 15 601L0 601Z" fill="#c62368"></path></svg>