<svg id="visual" viewBox="0 0 5000 500" width="5000" height="600" xmlns="http://www.w3.org/2000/svg" xmlns:xlink="http://www.w3.org/1999/xlink" version="1.1"> <path d="M0 455L36.2 452.7C72.3 450.3 144.7 445.7 217.2 432.3C289.7 419 362.3 397 434.8 392.5C507.3 388 579.7 401 652.2 410.8C724.7 420.7 797.3 427.3 869.8 420.7C942.3 414 1014.7 394 1087 383.2C1159.3 372.3 1231.7 370.7 1304.2 372.2C1376.7 373.7 1449.3 378.3 1521.8 390.2C1594.3 402 1666.7 421 1739.2 430.8C1811.7 440.7 1884.3 441.3 1956.8 431C2029.3 420.7 2101.7 399.3 2174 398.2C2246.3 397 2318.7 416 2391.2 416.7C2463.7 417.3 2536.3 399.7 2608.8 402.8C2681.3 406 2753.7 430 2826 441.8C2898.3 453.7 2970.7 453.3 3043.2 448C3115.7 442.7 3188.3 432.3 3260.8 426C3333.3 419.7 3405.7 417.3 3478.2 408.5C3550.7 399.7 3623.3 384.3 3695.8 383.8C3768.3 383.3 3840.7 397.7 3913 403.2C3985.3 408.7 4057.7 405.3 4130.2 399.5C4202.7 393.7 4275.3 385.3 4347.8 387.3C4420.3 389.3 4492.7 401.7 4565.2 408C4637.7 414.3 4710.3 414.7 4782.8 413.3C4855.3 412 4927.7 409 4963.8 407.5L5000 406L5000 601L4963.8 601C4927.7 601 4855.3 601 4782.8 601C4710.3 601 4637.7 601 4565.2 601C4492.7 601 4420.3 601 4347.8 601C4275.3 601 4202.7 601 4130.2 601C4057.7 601 3985.3 601 3913 601C3840.7 601 3768.3 601 3695.8 601C3623.3 601 3550.7 601 3478.2 601C3405.7 601 3333.3 601 3260.8 601C3188.3 601 3115.7 601 3043.2 601C2970.7 601 2898.3 601 2826 601C2753.7 601 2681.3 601 2608.8 601C2536.3 601 2463.7 601 2391.2 601C2318.7 601 2246.3 601 2174 601C2101.7 601 2029.3 601 1956.8 601C1884.3 601 1811.7 601 1739.2 601C1666.7 601 1594.3 601 1521.8 601C1449.3 601 1376.7 601 1304.2 601C1231.7 601 1159.3 601 1087 601C1014.7 601 942.3 601 869.8 601C797.3 601 724.7 601 652.2 601C579.7 601 507.3 601 434.8 601C362.3 601 289.7 601 217.2 601C144.7 601 72.3 601 36.2 601L0 601Z" fill="#fa7268"></path><path d="M0 480L36.2 478.3C72.3 476.7 144.7 473.3 217.2 472.2C289.7 471 362.3 472 434.8 474C507.3 476 579.7 479 652.2 478.5C724.7 478 797.3 474 869.8 474.8C942.3 475.7 1014.7 481.3 1087 484.2C1159.3 487 1231.7 487 1304.2 481.3C1376.7 475.7 1449.3 464.3 1521.8 461.3C1594.3 458.3 1666.7 463.7 1739.2 465.5C1811.7 467.3 1884.3 465.7 1956.8 470.5C2029.3 475.3 2101.7 486.7 2174 489C2246.3 491.3 2318.7 484.7 2391.2 476.8C2463.7 469 2536.3 460 2608.8 461C2681.3 462 2753.7 473 2826 474.7C2898.3 476.3 2970.7 468.7 3043.2 465.2C3115.7 461.7 3188.3 462.3 3260.8 467.2C3333.3 472 3405.7 481 3478.2 484.3C3550.7 487.7 3623.3 485.3 3695.8 479.2C3768.3 473 3840.7 463 3913 460.2C3985.3 457.3 4057.7 461.7 4130.2 463.8C4202.7 466 4275.3 466 4347.8 463.8C4420.3 461.7 4492.7 457.3 4565.2 454.5C4637.7 451.7 4710.3 450.3 4782.8 454.8C4855.3 459.3 4927.7 469.7 4963.8 474.8L5000 480L5000 601L4963.8 601C4927.7 601 4855.3 601 4782.8 601C4710.3 601 4637.7 601 4565.2 601C4492.7 601 4420.3 601 4347.8 601C4275.3 601 4202.7 601 4130.2 601C4057.7 601 3985.3 601 3913 601C3840.7 601 3768.3 601 3695.8 601C3623.3 601 3550.7 601 3478.2 601C3405.7 601 3333.3 601 3260.8 601C3188.3 601 3115.7 601 3043.2 601C2970.7 601 2898.3 601 2826 601C2753.7 601 2681.3 601 2608.8 601C2536.3 601 2463.7 601 2391.2 601C2318.7 601 2246.3 601 2174 601C2101.7 601 2029.3 601 1956.8 601C1884.3 601 1811.7 601 1739.2 601C1666.7 601 1594.3 601 1521.8 601C1449.3 601 1376.7 601 1304.2 601C1231.7 601 1159.3 601 1087 601C1014.7 601 942.3 601 869.8 601C797.3 601 724.7 601 652.2 601C579.7 601 507.3 601 434.8 601C362.3 601 289.7 601 217.2 601C144.7 601 72.3 601 36.2 601L0 601Z" fill="#e34c67"></path><path d="M0 537L36.2 532.3C72.3 527.7 144.7 518.3 217.2 519.8C289.7 521.3 362.3 533.7 434.8 535.7C507.3 537.7 579.7 529.3 652.2 522.5C724.7 515.7 797.3 510.3 869.8 509.7C942.3 509 1014.7 513 1087 519C1159.3 525 1231.7 533 1304.2 531.7C1376.7 530.3 1449.3 519.7 1521.8 517.3C1594.3 515 1666.7 521 1739.2 526.8C1811.7 532.7 1884.3 538.3 1956.8 542C2029.3 545.7 2101.7 547.3 2174 544.5C2246.3 541.7 2318.7 534.3 2391.2 530.8C2463.7 527.3 2536.3 527.7 2608.8 530C2681.3 532.3 2753.7 536.7 2826 539.8C2898.3 543 2970.7 545 3043.2 546.2C3115.7 547.3 3188.3 547.7 3260.8 548.2C3333.3 548.7 3405.7 549.3 3478.2 543C3550.7 536.7 3623.3 523.3 3695.8 521.5C3768.3 519.7 3840.7 529.3 3913 527C3985.3 524.7 4057.7 510.3 4130.2 507.7C4202.7 505 4275.3 514 4347.8 522.2C4420.3 530.3 4492.7 537.7 4565.2 542.7C4637.7 547.7 4710.3 550.3 4782.8 545.5C4855.3 540.7 4927.7 528.3 4963.8 522.2L5000 516L5000 601L4963.8 601C4927.7 601 4855.3 601 4782.8 601C4710.3 601 4637.7 601 4565.2 601C4492.7 601 4420.3 601 4347.8 601C4275.3 601 4202.7 601 4130.2 601C4057.7 601 3985.3 601 3913 601C3840.7 601 3768.3 601 3695.8 601C3623.3 601 3550.7 601 3478.2 601C3405.7 601 3333.3 601 3260.8 601C3188.3 601 3115.7 601 3043.2 601C2970.7 601 2898.3 601 2826 601C2753.7 601 2681.3 601 2608.8 601C2536.3 601 2463.7 601 2391.2 601C2318.7 601 2246.3 601 2174 601C2101.7 601 2029.3 601 1956.8 601C1884.3 601 1811.7 601 1739.2 601C1666.7 601 1594.3 601 1521.8 601C1449.3 601 1376.7 601 1304.2 601C1231.7 601 1159.3 601 1087 601C1014.7 601 942.3 601 869.8 601C797.3 601 724.7 601 652.2 601C579.7 601 507.3 601 434.8 601C362.3 601 289.7 601 217.2 601C144.7 601 72.3 601 36.2 601L0 601Z" fill="#c62368"></path></svg>